<svg id="Layer_1" data-name="Layer 1" xmlns="http://www.w3.org/2000/svg" viewBox="0 0 870.5445 668.1152"><defs><style>.cls-1{fill:#fff;}.cls-2{fill:#ed7457;}</style></defs><title>Logo_Full Colour_charrmello</title><path class="cls-1" d="M373.2406,917.646c-2.31,23.76-15.51,33.9077-44.0553,33.9077-33,0-47.4377-13.2-47.4377-44.0553s14.2726-44.0551,47.4377-44.0551c28.5453,0,41.7452,10.1476,44.0553,33.9077H342.798a12.1278,12.1278,0,0,0-13.6127-12.1277c-11.7976,0-16.9126,6.6-16.9126,22.0277s5.115,22.0277,16.9126,22.0277a12.2928,12.2928,0,0,0,13.6127-11.88Z" transform="translate(-281.7476 -283.4385)"/><path class="cls-1" d="M386.4951,849.4181H417.02v20.46a37.5382,37.5382,0,0,1,20.295-4.785c23.76,0,33.9077,12.21,33.9077,40.6727v45.7878H440.6979V905.7659c0-13.035-3.5475-18.6451-11.7976-18.6451s-11.88,5.61-11.88,18.6451v45.7878H386.4951Z" transform="translate(-281.7476 -283.4385)"/><path class="cls-1" d="M522.4013,895.47h11.88v-3.3824c0-8.25-3.4649-11.88-11.055-11.88s-10.9725,3.0526-10.9725,10.23H483.3787c0-18.9752,12.21-27.1427,40.6728-27.1427s40.59,9.6526,40.59,32.1751v54.2852h-23.595l-3.63-6.1049a34.486,34.486,0,0,1-25.1627,7.755c-22.6052,0-32.2577-8.25-32.2577-27.1427S492.7013,895.47,522.4013,895.47Zm3.3826,16.9951c-10.7251,0-15.2627,2.31-15.2627,10.1476,0,6.4351,3.0525,8.25,10.1476,8.25,9.4875,0,13.6125-4.62,13.6125-15.2627v-3.3824Z" transform="translate(-281.7476 -283.4385)"/><path class="cls-1" d="M628.4688,890.5035c-11.7149,0-16.5,5.61-16.5,18.6451v42.4052H581.4436V866.8258h23.6776l4.125,7.26a22.853,22.853,0,0,1,19.6351-7.26h13.53v23.6777Z" transform="translate(-281.7476 -283.4385)"/><path class="cls-1" d="M699.2,890.5035c-11.6324,0-16.5,5.61-16.5,18.6451v42.4052h-30.525v-84.728h23.76l4.0426,7.26a22.9353,22.9353,0,0,1,19.6351-7.26h13.6127v23.6777Z" transform="translate(-281.7476 -283.4385)"/><path class="cls-1" d="M753.1819,951.5537h-30.525V866.8257h24.1726l4.7025,8.25A24.7509,24.7509,0,0,1,773.89,864.9282a26.4823,26.4823,0,0,1,23.925,10.6426A28.71,28.71,0,0,1,823.06,864.9282c22.5227,0,32.1751,12.21,32.1751,40.6728v45.7878H824.71V905.7659c0-13.035-3.0525-18.6451-10.1474-18.6451s-10.1476,5.61-10.1476,18.6451v45.7878H773.89V905.7659c0-13.035-3.0525-18.6451-10.1476-18.6451s-10.1476,5.61-10.1476,18.6451Z" transform="translate(-281.7476 -283.4385)"/><path class="cls-1" d="M910.0706,933.2387a11.7973,11.7973,0,0,0,13.53-10.1476h28.7927c-3.5475,20.2128-16.5,28.4626-42.3227,28.4626-32.0927,0-45.7878-13.2-45.7878-44.0551s13.6951-44.0552,45.7878-44.0552,45.7053,13.2,45.7053,44.0552v8.25H894.643C894.643,928.2061,899.3455,933.2387,910.0706,933.2387ZM894.643,899.331h30.4426c0-11.7976-4.5376-16.5-15.18-16.5S894.643,887.5334,894.643,899.331Z" transform="translate(-281.7476 -283.4385)"/><path class="cls-1" d="M998.7862,951.5537H968.3435V849.4181h30.4427Z" transform="translate(-281.7476 -283.4385)"/><path class="cls-1" d="M1047.5794,951.5537h-30.4427V849.4181h30.4427Z" transform="translate(-281.7476 -283.4385)"/><path class="cls-1" d="M1152.292,907.4983c0,30.8552-14.19,44.0553-47.4375,44.0553s-47.4378-13.2-47.4378-44.0553,14.2726-44.0551,47.4378-44.0551S1152.292,876.9732,1152.292,907.4983Zm-47.4375,22.0277c11.88,0,16.9949-6.6,16.9949-22.0277s-5.1148-22.2751-16.9949-22.2751-16.5,6.6-16.5,22.0277S1093.0569,929.526,1104.8545,929.526Z" transform="translate(-281.7476 -283.4385)"/><path class="cls-2" d="M746.6246,801.4906l73.7547,13.4475A534.2642,534.2642,0,0,0,915.256,794.56L550.7688,661.4873c3.5475,7.1775,1.485,24.75-5.115,43.1478a71.0191,71.0191,0,0,1-3.4651,8.25l85.9655,45.21-93.473-30.7727a37.1268,37.1268,0,0,1-12.87,13.6952l220.3582,80.19q25.6587-.7425,49.9959-3.135ZM598.7015,699.52l203.6937,74.25L690.5244,751.1652Z" transform="translate(-281.7476 -283.4385)"/><path class="cls-2" d="M859.4972,684.51l-12.21-34.4026-35.8053,13.0351-16.5,27.6377-52.3052,19.0576,84.8105,30.855,103.7855-23.76L846.297,747.54l20.0476,7.3425,113.7671-41.25c3.3008-6.93,1.5689-23.5952-4.3708-41.25L900.5,690.12l71.5281-27.72c-6.3521-14.2725-14.3555-25.41-20.5426-28.215l-86.1306,31.35Z" transform="translate(-281.7476 -283.4385)"/><path class="cls-2" d="M592.917,644.8735a257.9652,257.9652,0,0,0,50.49,26.235,261.5265,261.5265,0,0,1-23.1826-102.6307,28.0465,28.0465,0,0,1,12.7876-22.0271A260.8624,260.8624,0,0,1,754.948,513.4493a28.0422,28.0422,0,0,1,22.027,12.7062,262.18,262.18,0,0,1,27.639,75.569,268.701,268.701,0,0,1,4.95,44.2211c18.9737-9.7353,57.75-25.8226,60.8836-62.1227,3.1358-36.3-17.9841-52.14-2.3091-92.3181-13.7782,1.7318-20.3777,9.24-26.4824,24.1733a45.6942,45.6942,0,0,1-17.079,22.8517,14.931,14.931,0,0,1-23.8413-9.8177c-1.6494-10.9723,8.9106-16.5,15.5925-25.3278,24.7505-33,6.5995-87.615-33.0014-99.4951a25.4923,25.4923,0,1,1-41.2492,29.4526c-10.7251-19.6351,7.0124-42.4052,10.3125-64.5153a51.2333,51.2333,0,0,0-16.5-44.88c-13.4475-11.88-35.8878-24.1726-28.4626-40.5077-12.2926,4.0425-16.5,19.3876-16.5,32.4226s4.2075,26.3176,0,38.6927c-9.1576,28.71-52.3054,34.98-61.3805,63.7729-4.8674,15.2627,2.7227,41.25,4.8676,56.8427,3.3824,24.7512-3.96,58.6576-26.4,53.6251-20.6251-4.62-11.22-26.3174-10.6426-41.25.9076-23.43-5.61-41.25-25.74-45.87,12.045,41.9928-25.3276,82.5-24.1726,127.2984a96.6935,96.6935,0,0,0,45.4577,75.9009Z" transform="translate(-281.7476 -283.4385)"/><path class="cls-2" d="M500.8964,667.4286l-47.0252,5.445,32.5052,34.4027c3.63,1.32,9.7351-6.6,13.695-17.5726S504.4439,668.7487,500.8964,667.4286Z" transform="translate(-281.7476 -283.4385)"/><path class="cls-2" d="M515.1884,794.0416a617.5146,617.5146,0,0,0,169.6208,28.1327L561.0586,777.2115Z" transform="translate(-281.7476 -283.4385)"/><path class="cls-2" d="M695.803,577.8991v62.04l53.7078-31.02Z" transform="translate(-281.7476 -283.4385)"/></svg>