<svg id="Layer_1" data-name="Layer 1" xmlns="http://www.w3.org/2000/svg" viewBox="0 0 527.8945 538.7355"><defs><style>.cls-1{fill:#ed7457;}</style></defs><title>Logo_charrmello</title><path class="cls-1" d="M464.877,518.0521,538.6317,531.5a534.2637,534.2637,0,0,0,94.8767-20.3781L269.0212,378.0488c3.5475,7.1775,1.485,24.75-5.115,43.1478a71.0236,71.0236,0,0,1-3.4651,8.25l85.9655,45.21-93.473-30.7727a37.1269,37.1269,0,0,1-12.87,13.6952l220.3582,80.19q25.6587-.7425,49.9959-3.135ZM316.9539,416.0815l203.6937,74.25L408.7768,467.7267Z" transform="translate(-172.1236 -0.0003)"/><path class="cls-1" d="M577.75,401.0715l-12.21-34.4026L529.7343,379.704l-16.5,27.6377-52.3052,19.0576,84.81,30.855,103.7855-23.76-84.9757,30.6072,20.0476,7.3425,113.7671-41.25c3.3008-6.93,1.5689-23.5952-4.3708-41.25l-75.2409,17.7375,71.5281-27.72c-6.3521-14.2725-14.3555-25.41-20.5426-28.215l-86.1306,31.35Z" transform="translate(-172.1236 -0.0003)"/><path class="cls-1" d="M311.1694,361.435a257.9621,257.9621,0,0,0,50.49,26.235,261.5264,261.5264,0,0,1-23.1826-102.6307,28.0465,28.0465,0,0,1,12.7876-22.0271A260.8627,260.8627,0,0,1,473.2,230.0108a28.0422,28.0422,0,0,1,22.027,12.7062,262.1809,262.1809,0,0,1,27.639,75.569,268.704,268.704,0,0,1,4.95,44.2211c18.9737-9.7353,57.75-25.8226,60.8836-62.1227,3.1358-36.3-17.9841-52.14-2.3091-92.3181-13.7782,1.7318-20.3777,9.24-26.4824,24.1733a45.6943,45.6943,0,0,1-17.079,22.8517,14.931,14.931,0,0,1-23.8413-9.8177c-1.6494-10.9723,8.9106-16.5,15.5925-25.3278,24.75-33,6.5995-87.615-33.0014-99.4951A25.4923,25.4923,0,1,1,460.33,149.9033c-10.7251-19.6351,7.0124-42.4052,10.3125-64.5153a51.2332,51.2332,0,0,0-16.5-44.88C440.6951,28.628,418.2548,16.3354,425.68,0c-12.2926,4.0425-16.5,19.3876-16.5,32.4226s4.2075,26.3176,0,38.6927c-9.1576,28.71-52.3054,34.98-61.38,63.7729-4.8674,15.2627,2.7227,41.25,4.8676,56.8427,3.3824,24.7512-3.96,58.6576-26.4,53.6251-20.6251-4.62-11.22-26.3174-10.6426-41.25.9076-23.43-5.61-41.25-25.74-45.87,12.045,41.9928-25.3276,82.5-24.1726,127.2984A96.6935,96.6935,0,0,0,311.17,361.4356Z" transform="translate(-172.1236 -0.0003)"/><path class="cls-1" d="M219.1488,383.99l-47.0252,5.445,32.5052,34.4027c3.63,1.32,9.7351-6.6,13.695-17.5726S222.6963,385.31,219.1488,383.99Z" transform="translate(-172.1236 -0.0003)"/><path class="cls-1" d="M233.4408,510.6031a617.5155,617.5155,0,0,0,169.6208,28.1327L279.311,493.773Z" transform="translate(-172.1236 -0.0003)"/><path class="cls-1" d="M414.0554,294.4606v62.04l53.7078-31.02Z" transform="translate(-172.1236 -0.0003)"/></svg>