<svg width="77" height="76" viewBox="0 0 77 76" fill="none" xmlns="http://www.w3.org/2000/svg">
<path d="M19.2907 64.7788C21.8907 66.4842 24.6719 67.9078 27.5853 69.0245C25.1886 63.8145 23.8954 58.1818 23.7842 52.4674C23.8225 51.7555 24.0319 51.0625 24.3952 50.445C24.7585 49.8274 25.2655 49.3028 25.8748 48.9137C32.0171 45.5543 38.9073 43.7261 45.9394 43.5899C46.6679 43.6254 47.3774 43.8297 48.0098 44.186C48.6422 44.5423 49.1795 45.0404 49.5776 45.6396C52.9084 51.5657 54.7425 58.1879 54.9263 64.9518C58.0623 63.3813 64.4291 60.7992 64.9586 54.9297C65.488 49.0602 61.9991 46.5846 64.5785 40.0496C62.3114 40.3158 61.2118 41.5402 60.2072 43.936C59.701 45.43 58.7212 46.7263 57.4106 47.636C57.0694 47.8911 56.6659 48.0541 56.2404 48.1087C55.8149 48.1634 55.3823 48.1079 54.9855 47.9477C54.5887 47.7875 54.2416 47.5283 53.9787 47.1957C53.7159 46.8631 53.5465 46.4689 53.4873 46.0522C53.2022 44.282 54.9399 43.3903 56.0395 41.9661C60.1121 36.6423 57.1255 27.8181 50.6908 25.9015C51.0979 26.3308 51.4071 26.8402 51.5978 27.3958C51.7884 27.9514 51.8561 28.5405 51.7963 29.1237C51.7365 29.707 51.5506 30.2711 51.251 30.7784C50.9515 31.2857 50.5451 31.7246 50.0589 32.0659C49.5728 32.4072 49.018 32.6429 48.4317 32.7575C47.8453 32.8721 47.2407 32.8629 46.6583 32.7305C46.0758 32.5981 45.5288 32.3455 45.0537 31.9895C44.5786 31.6336 44.1864 31.1825 43.9031 30.6663C42.1382 27.4853 45.057 23.8252 45.6 20.2449C45.7882 18.9143 45.6389 17.5587 45.1653 16.2981C44.6917 15.0375 43.9085 13.9109 42.8849 13.0178C40.7264 11.1012 37.0067 9.10478 38.2421 6.46948C36.2058 7.13496 35.527 9.61054 35.527 11.7001C35.527 13.7898 36.2058 15.9459 35.527 17.9423C34.0065 22.5741 26.9201 23.5989 25.4268 28.2307C24.6259 30.7062 25.8748 34.8854 26.2278 37.401C26.7708 41.3938 25.5762 46.8774 21.8701 46.0655C18.4898 45.3069 20.0238 41.8197 20.1188 39.4107C20.2682 35.6308 19.1957 32.7559 15.8833 32.0106C17.8653 38.7852 11.7156 45.3202 11.9193 52.534C12.0671 55.0024 12.8129 57.4008 14.0949 59.5302C15.3768 61.6597 17.158 63.4589 19.2907 64.7788Z" fill="#3B5753"/>
<path d="M36.2871 53.9038V63.9127L45.1248 58.9082L36.2871 53.9038Z" fill="#3B5753"/>
</svg>
