<svg width="71" height="69" viewBox="0 0 71 69" fill="none" xmlns="http://www.w3.org/2000/svg">
<path d="M67.9107 9.87812C67.3614 8.26528 66.4242 6.79947 65.1751 5.59955C63.926 4.39962 62.4 3.49934 60.7211 2.97171C44.155 -0.990569 26.8303 -0.990569 10.2643 2.97171C8.58846 3.50065 7.06607 4.40166 5.82063 5.60163C4.57519 6.80161 3.6418 8.26673 3.09621 9.87812C-1.03207 25.7911 -1.03207 42.4342 3.09621 58.3472C3.64837 59.9562 4.58686 61.4179 5.83583 62.6141C7.08479 63.8102 8.6092 64.7074 10.2858 65.2329C18.5385 67.1942 27.0074 68.192 35.5088 68.2047C44.0139 68.1926 52.4864 67.1948 60.7426 65.2329C62.4145 64.7031 63.9338 63.8042 65.1786 62.6084C66.4234 61.4126 67.3592 59.9532 67.9107 58.3472C72.0298 42.4331 72.0298 25.7922 67.9107 9.87812ZM63.7608 57.3118C63.4063 58.1978 62.864 59.0032 62.1681 59.677C61.4722 60.3508 60.6381 60.8783 59.7186 61.2258C51.7972 63.1077 43.6689 64.0672 35.5088 64.0836C27.3715 64.0664 19.2655 63.114 11.3637 61.2465C10.4397 60.9039 9.59968 60.381 8.89655 59.7109C8.19341 59.0408 7.64248 58.2381 7.27848 57.3532C3.34938 42.1034 3.34938 26.1634 7.27848 10.9136C7.63452 10.0273 8.17734 9.22119 8.87292 8.54588C9.56849 7.87058 10.4018 7.34062 11.3206 6.98923C19.2364 5.11713 27.3568 4.16118 35.5088 4.14176C43.6498 4.15829 51.7594 5.11076 59.6647 6.97887C60.587 7.31933 61.4255 7.84034 62.127 8.5088C62.8284 9.17726 63.3774 9.97856 63.7392 10.8618C67.6806 26.1128 67.688 42.0574 63.7608 57.3118Z" fill="#3B5753"/>
<path d="M29.1277 43.6233L46.288 34.1075L29.1277 24.5918V43.6233Z" fill="#3B5753"/>
</svg>
