<svg width="50" height="50" viewBox="0 0 50 50" fill="none" xmlns="http://www.w3.org/2000/svg">
<path d="M41.8226 20.4638C41.8143 15.8942 40.2489 11.4583 37.375 7.86065C34.501 4.26296 30.4834 1.70974 25.9601 0.606477C21.4367 -0.496789 16.6671 -0.0868451 12.4086 1.7712C8.15011 3.62925 4.64693 6.82887 2.45541 10.8619C0.263895 14.895 -0.490308 19.5302 0.312581 24.0315C1.11547 28.5329 3.42942 32.6421 6.88694 35.7068C10.3445 38.7715 14.7473 40.6158 19.3963 40.9469C24.0452 41.2779 28.6738 40.0768 32.5468 37.5342L44.2636 49.0208L50 43.3971L38.2832 31.9105C40.5974 28.5247 41.8297 24.5395 41.8226 20.4638ZM20.8706 33.0672C18.336 33.0672 15.8583 32.3303 13.7508 30.9498C11.6434 29.5693 10.0008 27.6072 9.03083 25.3115C8.06087 23.0159 7.80709 20.4898 8.30157 18.0527C8.79605 15.6156 10.0166 13.377 11.8088 11.62C13.6011 9.86298 15.8846 8.66643 18.3705 8.18166C20.8564 7.6969 23.4331 7.9457 25.7748 8.8966C28.1165 9.84749 30.118 11.4578 31.5262 13.5238C32.9343 15.5899 33.6859 18.0189 33.6859 20.5037C33.6859 23.8357 32.3357 27.0313 29.9324 29.3874C27.5291 31.7435 24.2694 33.0672 20.8706 33.0672Z" fill="#3B5753"/>
</svg>
